# This file uses centimeters as units for non-parametric coordinates.

mtllib Disboard.mtl
g default
v 50.000000 5.000000 50.000000
v 50.000000 5.000000 -50.000000
v -50.000000 5.000000 -50.000000
v -45.000000 5.000000 -45.000000
v 45.000000 5.000000 -45.000000
v 45.000000 5.000000 45.000000
v -50.000000 5.000000 50.000000
v -45.000000 5.000000 45.000000
v 45.000000 -2.658192 45.000000
v -45.000000 -2.658192 45.000000
v 45.000000 -2.658192 -45.000000
v -50.000000 -5.000000 50.000000
v 50.000000 -5.000000 50.000000
v 50.000000 -5.000000 -50.000000
v -45.000000 -2.658192 -45.000000
v -50.000000 -5.000000 -50.000000
vt 1.054852 -0.054852
vt 1.054852 1.054852
vt -0.054852 1.054852
vt 0.000634 0.999367
vt 0.999367 0.999367
vt 0.999367 0.000634
vt -0.054852 -0.054852
vt 0.000634 0.000634
vt 0.999367 0.000634
vt 0.000634 0.000634
vt 0.999367 0.999367
vt -0.054852 -0.054852
vt 1.054852 -0.054852
vt 1.054852 1.054852
vt 0.000634 0.999367
vt -0.054852 1.054852
vn 0.000000 1.000000 0.000000
vn 0.000000 1.000000 0.000000
vn 0.000000 1.000000 0.000000
vn 0.000000 1.000000 0.000000
vn 0.000000 1.000000 0.000000
vn 0.000000 1.000000 0.000000
vn 0.000000 1.000000 0.000000
vn 0.000000 1.000000 0.000000
vn 0.000000 0.000000 -1.000000
vn 0.000000 0.000000 -1.000000
vn 0.000000 0.000000 -1.000000
vn 0.000000 0.000000 -1.000000
vn -1.000000 0.000000 0.000000
vn -1.000000 0.000000 0.000000
vn -1.000000 0.000000 0.000000
vn -1.000000 0.000000 0.000000
vn 0.000000 0.000000 1.000000
vn 0.000000 0.000000 1.000000
vn 0.000000 0.000000 1.000000
vn 0.000000 0.000000 1.000000
vn 1.000000 0.000000 0.000000
vn 1.000000 0.000000 0.000000
vn 1.000000 0.000000 0.000000
vn 1.000000 0.000000 0.000000
vn 0.000000 1.000000 0.000000
vn 0.000000 1.000000 0.000000
vn 0.000000 1.000000 0.000000
vn 0.000000 1.000000 0.000000
vn 0.000000 -1.000000 0.000000
vn 0.000000 -1.000000 0.000000
vn 0.000000 -1.000000 0.000000
vn 0.000000 -1.000000 0.000000
vn 1.000000 0.000000 0.000000
vn 1.000000 0.000000 0.000000
vn 1.000000 0.000000 0.000000
vn 1.000000 0.000000 0.000000
vn 0.000000 0.000000 1.000000
vn 0.000000 0.000000 1.000000
vn 0.000000 0.000000 1.000000
vn 0.000000 0.000000 1.000000
vn -1.000000 0.000000 0.000000
vn -1.000000 0.000000 0.000000
vn -1.000000 0.000000 0.000000
vn -1.000000 0.000000 0.000000
vn 0.000000 0.000000 -1.000000
vn 0.000000 0.000000 -1.000000
vn 0.000000 0.000000 -1.000000
vn 0.000000 0.000000 -1.000000
s 1
g pCube3
usemtl phong1SG
f 1/1/1 2/2/2 3/3/3 4/4/4 5/5/5 6/6/6
f 7/7/7 1/1/1 6/6/6 8/8/8 4/4/4 3/3/3
s off
f 8/8/9 6/6/10 9/9/11 10/10/12
f 6/6/13 5/5/14 11/11/15 9/9/16
f 12/12/17 13/13/18 1/1/19 7/7/20
f 13/13/21 14/14/22 2/2/23 1/1/24
f 15/15/25 10/10/26 9/9/27 11/11/28
f 16/16/29 14/14/30 13/13/31 12/12/32
f 4/4/33 8/8/34 10/10/35 15/15/36
f 5/5/37 4/4/38 15/15/39 11/11/40
f 16/16/41 12/12/42 7/7/43 3/3/44
f 3/3/45 2/2/46 14/14/47 16/16/48
