# This file uses centimeters as units for non-parametric coordinates.

mtllib InnerGround.mtl
g default
v 98.000988 -2.012196 -169.742603
v -98.000915 -2.012196 -169.742639
v -196.001885 -2.012196 -0.000029
v -98.000970 -2.012196 169.742603
v 98.000933 -2.012196 169.742621
v 196.001885 -2.012196 0.000000
v 98.000988 -0.012196 -169.742603
v -98.000915 -0.012196 -169.742639
v -196.001885 -0.012196 -0.000029
v -98.000970 -0.012196 169.742603
v 98.000933 -0.012196 169.742621
v 196.001885 -0.012196 0.000000
v 0.000000 -2.012196 0.000000
v 0.000000 -0.012196 0.000000
vt -119.564941 -79.816185
vt -198.291122 -79.816185
vt -198.291122 -237.270081
vt -119.564941 -237.270081
vt -116.560646 -237.271637
vt -48.382076 -237.271637
vt -48.382076 -79.820030
vt -116.560646 -79.820030
vt 19.796478 -237.271637
vt 19.796478 -79.820030
vt 22.637325 -237.271637
vt 101.363510 -237.271637
vt 101.363510 -79.820030
vt 22.637325 -79.820030
vt 62.766666 -78.226936
vt 130.946747 -78.226936
vt 130.946747 79.224663
vt 62.766666 79.224663
vt 199.126846 -78.226936
vt 199.126846 79.224663
vt -76.038429 39.860439
vt -76.038429 -38.865776
vt -7.859853 0.497723
vt -7.859853 79.223900
vt 60.318703 39.860439
vt 60.318703 -38.865776
vt -7.859853 -78.227715
vt -61.930931 120.181213
vt -61.930931 198.908173
vt -130.111023 159.544724
vt -130.111023 238.271637
vt -198.291122 198.908173
vt -198.291122 120.181213
vt -130.111023 80.817734
vn 0.000000 0.000000 -1.000000
vn 0.000000 0.000000 -1.000000
vn 0.000000 0.000000 -1.000000
vn 0.000000 0.000000 -1.000000
vn -0.866025 0.000000 -0.500000
vn -0.866025 0.000000 -0.500000
vn -0.866025 0.000000 -0.500000
vn -0.866025 0.000000 -0.500000
vn -0.866026 0.000000 0.500000
vn -0.866026 0.000000 0.500000
vn -0.866026 0.000000 0.500000
vn -0.866026 0.000000 0.500000
vn -0.000000 0.000000 1.000000
vn -0.000000 0.000000 1.000000
vn -0.000000 0.000000 1.000000
vn -0.000000 0.000000 1.000000
vn 0.866025 0.000000 0.500000
vn 0.866025 0.000000 0.500000
vn 0.866025 0.000000 0.500000
vn 0.866025 0.000000 0.500000
vn 0.866026 0.000000 -0.500000
vn 0.866026 0.000000 -0.500000
vn 0.866026 0.000000 -0.500000
vn 0.866026 0.000000 -0.500000
vn 0.000000 -1.000000 0.000000
vn 0.000000 -1.000000 0.000000
vn 0.000000 -1.000000 0.000000
vn 0.000000 -1.000000 0.000000
vn 0.000000 -1.000000 0.000000
vn 0.000000 -1.000000 0.000000
vn 0.000000 -1.000000 0.000000
vn 0.000000 1.000000 0.000000
vn 0.000000 1.000000 -0.000000
vn 0.000000 1.000000 0.000000
vn 0.000000 1.000000 -0.000000
vn 0.000000 1.000000 0.000000
vn 0.000000 1.000000 0.000000
vn 0.000000 1.000000 0.000000
s off
g Ground2
usemtl phong2SG
f 1/1/1 2/2/2 8/3/3 7/4/4
f 2/5/5 3/6/6 9/7/7 8/8/8
f 3/6/9 4/9/10 10/10/11 9/7/12
f 4/11/13 5/12/14 11/13/15 10/14/16
f 5/15/17 6/16/18 12/17/19 11/18/20
f 6/16/21 1/19/22 7/20/23 12/17/24
s 1
f 2/21/25 1/22/26 13/23/27
f 3/24/28 2/21/25 13/23/27
f 4/25/29 3/24/28 13/23/27
f 5/26/30 4/25/29 13/23/27
f 6/27/31 5/26/30 13/23/27
f 1/22/26 6/27/31 13/23/27
s 2
f 7/28/32 8/29/33 14/30/34
f 8/29/33 9/31/35 14/30/34
f 9/31/35 10/32/36 14/30/34
f 10/32/36 11/33/37 14/30/34
f 11/33/37 12/34/38 14/30/34
f 12/34/38 7/28/32 14/30/34
