# This file uses centimeters as units for non-parametric coordinates.

mtllib JoustBoundries.mtl
g default
v 18.312675 -1.709287 -31.718468
v 36.625336 -1.709287 0.000000
v 0.000000 -1.709287 0.000000
v 17.699917 -0.914060 -30.481915
v 0.000000 -0.914060 0.175226
v 35.399818 -0.914060 0.175226
v 18.312666 -1.709287 31.718472
v -18.312672 -1.709287 31.718468
v 17.699907 -0.914060 30.832371
v -17.699915 -0.914060 30.832367
v 18.312675 0.290713 -31.718468
v 36.625336 0.290713 0.000000
v 17.598751 0.290713 -30.481915
v 17.699917 0.290713 -30.481915
v 35.298653 0.290713 0.000000
v 35.399818 0.290713 0.175226
v -17.699915 0.290713 30.832367
v 17.699907 0.290713 30.832371
v 18.312666 0.290713 31.718472
v -18.312672 0.290713 31.718468
v 17.750492 0.290713 30.744757
v -17.750498 0.290713 30.744755
v -35.399818 -0.914060 0.175221
v -36.625336 -1.709287 -0.000005
v -35.399818 0.290713 0.175221
v -36.625336 0.290713 -0.000005
v -17.699903 -0.914060 -30.481920
v -18.312662 -1.709287 -31.718475
v -35.298653 0.290713 -0.000005
v -18.312662 0.290713 -31.718475
v -17.598738 0.290713 -30.481920
v -17.699903 0.290713 -30.481920
vt -76.038429 -38.865776
vt -7.859853 -78.227715
vt -7.859852 0.497723
vt -76.038429 -38.865776
vt -7.859852 0.497723
vt -7.859853 -78.227715
vt 60.318703 -38.865776
vt 60.318703 39.860439
vt 60.318703 -38.865776
vt 60.318703 39.860439
vt 130.946747 -78.226936
vt 199.126846 -78.226936
vt 199.126846 79.224663
vt 130.946747 79.224663
vt -130.111023 80.817734
vt -61.930931 120.181213
vt -64.588951 121.715813
vt -64.588951 121.498360
vt -130.111023 83.669472
vt 130.946747 -78.226936
vt 130.946747 -14.389351
vt 131.336441 -14.389349
vt 199.126846 -14.389351
vt 199.126846 -78.226936
vt 22.637325 -173.434052
vt 101.363510 -173.434052
vt 101.363510 -237.271637
vt 22.637325 -237.271637
vt 22.637325 -237.271637
vt 101.363510 -237.271637
vt 101.363510 -79.820030
vt 22.637325 -79.820030
vt 62.766666 -78.226936
vt 62.766666 79.224663
vt -198.291122 120.181213
vt -130.487686 83.452019
vt -196.198090 121.389626
vt 62.766666 -78.226936
vt 62.766666 -14.389351
vt 62.961514 -14.389347
vt -198.291122 198.908173
vt -196.386429 121.498352
vt -196.386414 197.591049
vt -196.198090 197.699768
vt -7.859853 79.223900
vt -7.859853 79.223900
vt -48.382076 -237.271637
vt -48.382076 -173.434052
vt 19.601637 -173.434052
vt 19.796478 -173.434052
vt 19.796478 -237.271637
vt -48.382076 -237.271637
vt 19.796478 -237.271637
vt 19.796478 -79.820030
vt -48.382076 -79.820030
vt -76.038429 39.860439
vt -76.038429 39.860439
vt -130.111023 238.271637
vt -130.487686 235.637360
vt -130.111023 235.419907
vt -61.930931 198.908173
vt -64.588951 197.373581
vt -119.564941 -79.816185
vt -198.291122 -79.816185
vt -198.291122 -237.270081
vt -119.564941 -237.270081
vt -116.560646 -237.271637
vt -116.560646 -79.820030
vt -116.560646 -237.271637
vt -116.560646 -173.434052
vt -48.771763 -173.434052
vt -64.588959 197.591034
vt -119.564941 -79.816185
vt -119.564941 -143.654694
vt -119.789925 -143.654709
vt -198.066132 -143.654709
vt -198.291122 -143.654694
vt -198.291122 -79.816185
vn 0.000000 -1.000000 -0.000000
vn 0.000000 -1.000000 0.000000
vn 0.000000 -1.000000 0.000000
vn 0.000000 1.000000 -0.000000
vn 0.000000 1.000000 -0.000000
vn 0.000000 1.000000 0.000000
vn 0.000000 -1.000000 0.000000
vn 0.000000 -1.000000 0.000000
vn 0.000000 1.000000 0.000000
vn 0.000000 1.000000 0.000000
vn 0.866026 0.000000 -0.500000
vn 0.866026 0.000000 -0.500000
vn 0.866026 0.000000 -0.500000
vn 0.866026 0.000000 -0.500000
vn 0.000000 1.000000 -0.000000
vn 0.000000 1.000000 -0.000000
vn 0.000000 1.000000 -0.000000
vn 0.000000 1.000000 -0.000000
vn 0.000000 1.000000 -0.000000
vn -0.866026 0.000000 0.500000
vn -0.866026 0.000000 0.500000
vn -0.866026 0.000000 0.500000
vn -0.866026 0.000000 0.500000
vn -0.866026 0.000000 0.500000
vn 0.000000 0.000000 -1.000000
vn 0.000000 0.000000 -1.000000
vn 0.000000 0.000000 -1.000000
vn 0.000000 0.000000 -1.000000
vn -0.000000 0.000000 1.000000
vn -0.000000 0.000000 1.000000
vn -0.000000 0.000000 1.000000
vn -0.000000 0.000000 1.000000
vn 0.866025 0.000000 0.500000
vn 0.866025 0.000000 0.500000
vn 0.866025 0.000000 0.500000
vn 0.866025 0.000000 0.500000
vn 0.000000 1.000000 0.000000
vn 0.000000 1.000000 0.000000
vn 0.000000 1.000000 0.000000
vn -0.866025 0.000001 -0.500000
vn -0.866025 0.000001 -0.500000
vn -0.866025 0.000001 -0.500000
vn -0.866025 0.000001 -0.500000
vn -0.866025 0.000001 -0.500000
vn 0.000000 1.000000 0.000000
vn 0.000000 1.000000 0.000000
vn 0.000000 1.000000 0.000000
vn 0.000000 1.000000 0.000000
vn 0.000000 1.000000 0.000000
vn 0.000000 -1.000000 0.000000
vn 0.866026 0.000000 -0.500000
vn 0.866026 0.000000 -0.500000
vn 0.866026 0.000000 -0.500000
vn 0.866026 0.000000 -0.500000
vn 0.866026 0.000000 -0.500000
vn -0.866026 0.000000 0.500000
vn -0.866026 0.000000 0.500000
vn -0.866026 0.000000 0.500000
vn -0.866026 0.000000 0.500000
vn 0.000000 1.000000 -0.000000
vn 0.000000 -1.000000 0.000000
vn 0.000000 1.000000 -0.000000
vn 0.000000 1.000000 -0.000000
vn 0.000000 1.000000 -0.000000
vn 0.000000 1.000000 -0.000000
vn 0.000000 1.000000 -0.000000
vn 0.000000 0.000000 -1.000000
vn 0.000000 0.000000 -1.000000
vn 0.000000 0.000000 -1.000000
vn 0.000000 0.000000 -1.000000
vn -0.866025 0.000000 -0.500000
vn -0.866025 0.000000 -0.500000
vn -0.866025 0.000000 -0.500000
vn -0.866025 0.000000 -0.500000
vn 0.866025 0.000000 0.500000
vn 0.866025 0.000000 0.500000
vn 0.866025 0.000000 0.500000
vn 0.866025 0.000000 0.500000
vn 0.866025 0.000000 0.500000
vn 0.000000 1.000000 -0.000000
vn -0.000000 0.000000 1.000000
vn -0.000000 0.000000 1.000000
vn -0.000000 0.000000 1.000000
vn -0.000000 0.000000 1.000000
vn -0.000000 0.000000 1.000000
vn -0.000000 0.000000 1.000000
s 1
g JoustBoundries
usemtl phong2SG
f 1/1/1 2/2/2 3/3/3
s 2
f 4/4/4 5/5/5 6/6/6
s 1
f 7/7/7 8/8/8 3/3/3
s 2
f 9/9/9 5/5/5 10/10/10
s off
f 2/11/11 1/12/12 11/13/13 12/14/14
s 4
f 12/15/15 11/16/16 13/17/17 14/18/18 15/19/19
s 1
f 2/2/2 7/7/7 3/3/3
s 2
f 6/6/6 5/5/5 9/9/9
s off
f 6/20/20 16/21/21 15/22/22 14/23/23 4/24/24
f 17/25/25 18/26/26 9/27/27 10/28/28
f 8/29/29 7/30/30 19/31/31 20/32/32
f 7/33/33 2/11/34 12/14/35 19/34/36
s 4
f 19/35/37 12/15/15 15/19/19 16/36/38 21/37/39
s off
f 9/38/40 18/39/41 21/40/42 16/21/43 6/20/44
s 4
f 20/41/45 19/35/37 21/37/39 18/42/46 17/43/47 22/44/48
s 2
f 10/10/10 5/5/5 23/45/49
s 1
f 8/8/8 24/46/50 3/3/3
s off
f 23/47/51 25/48/52 22/49/53 17/50/54 10/51/55
f 24/52/56 8/53/57 20/54/58 26/55/59
s 2
f 27/56/60 5/5/5 4/4/4
s 1
f 28/57/61 1/1/1 3/3/3
s 2
f 23/45/49 5/5/5 27/56/60
s 1
f 24/46/50 28/57/61 3/3/3
s 4
f 26/58/62 20/41/45 22/44/48 25/59/63 29/60/64
f 13/17/17 11/16/16 30/61/65 31/62/66
s off
f 1/63/67 28/64/68 30/65/69 11/66/70
f 28/67/71 24/52/72 26/55/73 30/68/74
f 27/69/75 32/70/76 29/71/77 25/48/78 23/47/79
s 4
f 30/61/65 26/58/62 29/60/64 32/72/80 31/62/66
s off
f 4/73/81 14/74/82 13/75/83 31/76/84 32/77/85 27/78/86
