# This file uses centimeters as units for non-parametric coordinates.

mtllib Backboard.mtl
g default
v 121.410164 -3.574084 -240.053635
v 121.778542 165.981476 -219.923553
v 121.410164 165.981476 -219.598740
v 109.096008 147.730835 -221.800461
v 109.085930 153.059937 -221.157578
v 109.076599 153.513321 -224.961029
v 109.288269 41.719463 -238.287674
v 121.778542 -3.574084 -240.378387
v 121.778542 165.981476 -269.235352
v -121.778542 165.981476 -219.923553
v 97.561676 153.038422 -221.160172
v -109.298080 153.042862 -224.482849
v 121.778542 -3.574084 -269.235352
v 121.410164 165.981476 -268.910583
v 109.297218 41.284882 -234.641922
v -121.778542 165.981476 -269.235352
v 121.410164 -3.574084 -268.910583
v -122.146919 165.981476 -219.598740
v -109.086411 41.249004 -237.809494
v -122.146919 165.981476 -268.910583
v -121.778542 -3.574084 -269.235352
v -121.778542 -3.574084 -240.378387
v -109.290054 152.653320 -221.215027
v -109.131897 68.795235 -231.492172
v -103.017174 152.664047 -221.205338
v -59.646149 40.987919 -234.834045
v 57.112679 41.187481 -234.653671
v -122.146919 -3.574084 -268.910583
v -122.146919 -3.574084 -240.053635
v -109.079285 40.903431 -234.910416
vt 0.999831 0.289189
vt 0.874250 0.742766
vt 0.999830 0.992496
vt 0.636448 0.250000
vt 0.875000 0.250000
vt 0.636919 0.238081
vt 0.875000 0.000000
vt 0.119491 0.001992
vt 0.290250 0.998008
vt 0.000579 0.998008
vt 0.079219 0.742766
vt 0.625000 0.261448
vt 0.611807 0.263193
vt 0.625000 0.500000
vt 0.375000 0.500000
vt 0.651530 0.490436
vt 0.401530 0.490436
vt 0.651530 0.490436
vt 0.646339 -0.000000
vt 0.202313 0.998008
vt 0.000654 0.001992
vt 0.202313 0.001992
vt 0.874250 0.039459
vt 0.625000 0.500000
vt 0.290250 0.001992
vt 0.401530 0.490436
vt 0.000067 0.992496
vt 0.000654 0.998008
vt 0.375000 0.750000
vt 0.625000 0.750000
vt 0.693727 0.001992
vt 0.693727 0.001992
vt 0.693727 0.003496
vt 0.693727 0.998008
vt 0.001385 0.998008
vt 0.693727 0.996504
vt 0.118245 0.998008
vt 0.001564 0.003499
vt 0.000236 0.998008
vt 0.001385 0.003496
vt 0.625000 0.500000
vt 0.329958 0.250000
vt 0.312602 0.062398
vt 0.125000 0.250000
vt 0.375000 0.295042
vt 0.382181 0.293573
vt 0.079219 0.039459
vt 0.431592 0.943408
vt 0.565258 0.970757
vt 0.625000 0.978661
vt 0.348973 0.998008
vt 0.548529 0.001992
vt 0.689982 0.998008
vt 0.110662 0.473819
vt 0.163585 0.224089
vt 0.106159 0.473819
vt 0.000067 0.289189
vt 0.999738 4.323666
vt 1.028460 4.291939
vt -0.074640 4.291447
vt 0.640433 0.919778
vt 0.694894 0.998008
vt 0.640389 0.945431
vt 0.001504 0.998008
vt 0.297455 0.944784
vt 0.002103 4.323751
vt 0.055313 4.604765
vt 0.701480 0.001992
vt 0.753413 0.183881
vt 0.753198 0.297943
vt 0.348973 0.001992
vt 0.167167 0.224089
vt 0.375000 0.931830
vt 0.306830 0.000000
vt 0.125000 0.000000
vt 0.694894 0.001992
vt 0.641964 0.099519
vt 0.642052 0.052391
vt 0.001504 0.001992
vt 0.184953 0.051527
vt 0.620259 0.052350
vn 0.658595 -0.090131 0.747081
vn 0.658648 -0.090121 0.747035
vn 0.658648 -0.090121 0.747035
vn -0.999995 -0.002157 0.002196
vn -0.999995 -0.002155 0.002198
vn -0.999995 -0.002155 0.002198
vn -0.999995 -0.002155 0.002198
vn 1.000000 0.000000 0.000000
vn 1.000000 0.000000 0.000000
vn 1.000000 0.000000 0.000000
vn 0.000000 1.000000 0.000017
vn 0.000000 1.000000 0.000000
vn 0.000000 1.000000 0.000017
vn 0.001881 -0.992967 -0.118374
vn 0.001880 -0.992968 -0.118369
vn 0.001880 -0.992968 -0.118370
vn 0.001880 -0.992968 -0.118373
vn -0.661339 0.000000 -0.750087
vn -0.661286 0.000000 -0.750134
vn -0.661339 0.000000 -0.750087
vn -0.999995 -0.002155 0.002198
vn 0.000000 1.000000 0.000000
vn 0.000000 1.000000 0.000000
vn 0.000000 1.000000 0.000000
vn 0.658595 -0.090131 0.747081
vn 0.000000 -1.000000 0.000000
vn 0.000000 -1.000000 0.000000
vn 0.000000 -1.000000 0.000017
vn 1.000000 0.000000 0.000000
vn -0.661286 0.000000 -0.750134
vn 0.000000 1.000000 0.000000
vn 0.000000 1.000000 0.000000
vn 0.000000 -1.000000 0.000000
vn 0.000000 -1.000000 0.000000
vn 0.001316 -0.168131 -0.985764
vn -0.661286 0.000000 -0.750134
vn -0.000002 0.001915 -0.999998
vn -0.000801 -0.165895 -0.986143
vn 0.000000 -1.000000 0.000000
vn 0.000817 0.000743 -0.999999
vn 0.000000 -1.000000 0.000017
vn 0.999995 0.002155 -0.002199
vn 0.999995 0.002155 -0.002199
vn 0.999995 0.002155 -0.002199
vn 0.001881 -0.992969 -0.118364
vn 0.001880 -0.992967 -0.118373
vn -0.658701 0.090111 -0.746989
vn -0.658542 0.090132 -0.747127
vn -0.658701 0.090111 -0.746990
vn -0.001880 0.992968 0.118370
vn -0.001880 0.992968 0.118368
vn -0.001880 0.992968 0.118367
vn -0.001880 0.992968 0.118366
vn -1.000000 0.000000 0.000000
vn -1.000000 0.000000 0.000000
vn -1.000000 0.000000 0.000000
vn 0.661339 0.000000 0.750087
vn 0.661286 0.000000 0.750134
vn 0.661286 0.000000 0.750134
vn -0.658542 0.090132 -0.747127
vn 0.000000 -1.000000 0.000000
vn 0.000000 -1.000000 0.000000
vn 0.000000 -1.000000 0.000000
vn -0.000008 -0.119782 0.992800
vn 0.000288 -0.119778 0.992801
vn 0.000967 -0.119871 0.992789
vn 0.116218 -0.138456 0.983526
vn 0.022807 -0.121578 0.992320
vn 0.420219 -0.182585 0.888864
vn -0.001316 -0.121645 0.992573
vn -1.000000 0.000000 0.000000
vn 0.661339 0.000000 0.750087
vn -0.001880 0.992968 0.118367
vn -0.001880 0.992968 0.118367
vn 0.999995 0.002157 -0.002201
vn 0.999995 0.002156 -0.002200
vn 0.000000 -0.119770 0.992802
vn 0.000000 -0.119770 0.992802
vn 0.000000 -0.119770 0.992802
vn 0.000002 -0.119770 0.992802
vn 0.000002 -0.119770 0.992802
vn 0.000000 -0.119770 0.992802
s 1
g Backboard
usemtl phong3SG
f 1/1/1 2/2/2 3/3/3
s 2
f 5/4/4 6/5/5 4/6/6
f 4/6/6 6/5/5 7/7/7
s 3
f 8/8/8 9/9/9 2/10/10
s 4
f 2/2/11 10/11/12 3/3/13
s 5
f 5/12/14 11/13/15 6/14/16
f 11/13/15 12/15/17 6/14/16
s 6
f 9/16/18 13/17/19 14/18/20
s 2
f 15/19/21 4/6/6 7/7/7
s 7
f 16/20/22 2/21/23 9/22/24
s 1
f 8/23/25 2/2/2 1/1/1
s 8
f 9/16/26 14/18/27 16/24/28
s 3
f 13/25/29 9/9/9 8/8/8
s 6
f 14/18/20 13/17/19 17/26/30
s 4
f 3/3/13 10/11/12 18/27/31
s 7
f 10/28/32 2/21/23 16/20/22
s 9
f 13/31/33 8/32/34 17/33/35
f 28/34/36 20/35/37 21/36/38
f 8/8/34 22/37/39 17/38/35
f 22/37/39 21/39/38 17/38/35
f 17/33/35 21/36/38 14/40/40
f 21/36/38 20/35/37 14/40/40
s 8
f 16/24/28 14/18/27 20/41/41
s 11
f 23/42/42 24/43/43 12/44/44
s 5
f 23/45/45 12/15/17 25/46/46
f 11/13/15 25/46/46 12/15/17
s 12
f 10/11/47 22/47/48 18/27/49
s 13
f 26/48/50 27/49/51 7/30/52
f 7/30/52 27/49/51 15/50/53
s 14
f 16/51/54 22/52/55 10/53/56
s 15
f 28/54/57 16/55/58 20/56/59
s 12
f 18/27/49 22/47/48 29/57/60
s off
f 8/58/61 1/59/62 22/60/63
s 16
f 25/61/64 18/62/65 23/63/66
f 18/62/65 29/64/67 23/63/66
f 23/63/66 29/64/67 24/65/68
f 29/66/67 22/60/69 24/67/68
f 22/68/69 30/69/70 24/70/68
s 14
f 21/71/71 22/52/55 16/51/54
s 15
f 21/72/72 16/55/58 28/54/57
s 13
f 30/73/73 26/48/50 19/29/74
f 19/29/74 26/48/50 7/30/52
s 11
f 30/74/75 19/75/76 24/43/43
f 24/43/43 19/75/76 12/44/44
s 16
f 18/62/65 25/61/64 3/76/77
f 25/61/64 11/77/78 3/76/77
f 11/77/78 5/78/79 3/76/77
f 1/79/80 3/76/77 15/80/81
f 15/80/81 3/76/77 4/81/82
f 3/76/77 5/78/79 4/81/82
