# This file uses centimeters as units for non-parametric coordinates.

mtllib Barrier.mtl
g default
v 94.939804 -103.482941 -148.224304
v 94.409531 -103.482941 -241.006943
v 94.939804 -69.131897 -148.224304
v 94.409531 -69.131897 -241.006943
v -44.358295 -69.131897 -201.334915
v -44.888538 -69.131897 -246.863190
v -44.358295 -103.482941 -201.334915
v -44.888538 -103.482941 -246.863190
vt -1.035877 1.296834
vt -1.035877 0.571580
vt -0.767366 1.296834
vt -0.767366 0.571580
vt 0.933004 0.506331
vt 1.658258 0.510476
vt 1.348154 1.595183
vt 1.704035 1.599328
vt -0.826126 1.309496
vt -0.826126 1.665377
vt -1.094638 1.309496
vt -1.094638 1.665377
vt 0.142511 1.656233
vt 0.188287 0.567382
vt 0.498392 1.652088
vt 0.913541 0.563237
vt 0.123048 0.571580
vt 0.123048 1.660432
vt -0.145463 0.571580
vt -0.145463 1.660432
vt -0.000000 0.008887
vt 1.000000 0.008887
vt -0.000000 0.991113
vt 1.000000 0.991113
vn 0.999984 0.000000 -0.005715
vn 0.999984 0.000000 -0.005715
vn 0.999984 0.000000 -0.005715
vn 0.999984 0.000000 -0.005715
vn 0.000000 1.000000 -0.000000
vn 0.000000 1.000000 -0.000000
vn 0.000000 1.000000 -0.000000
vn 0.000000 1.000000 0.000000
vn -0.999932 0.000000 0.011646
vn -0.999932 0.000000 0.011646
vn -0.999932 0.000000 0.011646
vn -0.999932 0.000000 0.011646
vn 0.000000 -1.000000 -0.000000
vn 0.000000 -1.000000 -0.000000
vn 0.000000 -1.000000 -0.000000
vn 0.000000 -1.000000 0.000000
vn 0.042004 0.000000 -0.999117
vn 0.042004 0.000000 -0.999117
vn 0.042004 0.000000 -0.999117
vn 0.042004 0.000000 -0.999117
vn -0.356257 0.000000 0.934388
vn -0.356257 0.000000 0.934388
vn -0.356257 0.000000 0.934388
vn -0.356257 0.000000 0.934388
s 1
g Barrier
usemtl phong8SG
f 1/1/1 2/2/2 3/3/3
f 3/3/3 2/2/2 4/4/4
s 2
f 3/5/5 4/6/6 5/7/7
f 5/7/7 4/6/6 6/8/8
s 3
f 5/9/9 6/10/10 7/11/11
f 7/11/11 6/10/10 8/12/12
s 4
f 8/13/13 2/14/14 7/15/15
f 7/15/15 2/14/14 1/16/16
s 5
f 2/17/17 8/18/18 4/19/19
f 4/19/19 8/18/18 6/20/20
s 6
f 7/21/21 1/22/22 5/23/23
f 5/23/23 1/22/22 3/24/24
