# This file uses centimeters as units for non-parametric coordinates.

mtllib Base.mtl
g default
v -96.235989 -103.302519 240.684238
v 96.235989 -103.302519 240.684238
v -96.235989 -102.302519 240.684238
v 96.235989 -102.302519 240.684238
v -96.235989 -102.302519 -240.065049
v 96.235989 -102.302519 -240.065049
v -96.235989 -103.302519 -240.065049
v 96.235989 -103.302519 -240.065049
vt 0.002451 -2.992482
vt 0.997549 -2.992482
vt 0.002451 -1.997384
vt 0.997549 -1.997384
vt 0.002451 -1.002286
vt 0.997549 -1.002286
vt 0.002451 -0.007188
vt 0.997549 -0.007188
vt 0.002451 0.987911
vt 0.997549 0.987911
vt 1.992647 -2.992482
vt 1.992647 -1.997384
vt -0.992647 -2.992482
vt -0.992647 -1.997384
vn 0.000000 0.000000 1.000000
vn 0.000000 0.000000 1.000000
vn 0.000000 0.000000 1.000000
vn 0.000000 0.000000 1.000000
vn 0.000000 1.000000 0.000000
vn 0.000000 1.000000 0.000000
vn 0.000000 1.000000 0.000000
vn 0.000000 1.000000 0.000000
vn 0.000000 0.000000 -1.000000
vn 0.000000 0.000000 -1.000000
vn 0.000000 0.000000 -1.000000
vn 0.000000 0.000000 -1.000000
vn 0.000000 -1.000000 0.000000
vn 0.000000 -1.000000 0.000000
vn 0.000000 -1.000000 0.000000
vn 0.000000 -1.000000 0.000000
vn 1.000000 0.000000 0.000000
vn 1.000000 0.000000 0.000000
vn 1.000000 0.000000 0.000000
vn 1.000000 0.000000 0.000000
vn -1.000000 0.000000 0.000000
vn -1.000000 0.000000 0.000000
vn -1.000000 0.000000 0.000000
vn -1.000000 0.000000 0.000000
s 1
g Base PinballInternals PinballMachine
usemtl phong4SG
f 1/1/1 2/2/2 3/3/3
f 3/3/3 2/2/2 4/4/4
s 2
usemtl phong5SG
f 3/3/5 4/4/6 5/5/7
f 5/5/7 4/4/6 6/6/8
s 3
usemtl phong4SG
f 5/5/9 6/6/10 7/7/11
f 7/7/11 6/6/10 8/8/12
s 4
usemtl initialShadingGroup
f 7/7/13 8/8/14 1/9/15
f 1/9/15 8/8/14 2/10/16
s 5
usemtl phong4SG
f 2/2/17 8/11/18 4/4/19
f 4/4/19 8/11/18 6/12/20
s 6
f 7/13/21 1/1/22 5/14/23
f 5/14/23 1/1/22 3/3/24
