# This file uses centimeters as units for non-parametric coordinates.

mtllib Bumper_3.mtl
g default
v 2.813760 -61.682790 -187.019383
v 1.240103 -61.467738 -190.100363
v -1.210925 -61.297072 -192.545442
v -4.299401 -61.187497 -194.115278
v -7.723002 -61.149740 -194.656207
v -11.146604 -61.187497 -194.115278
v -14.235078 -61.297072 -192.545440
v -16.686105 -61.467738 -190.100361
v -18.259761 -61.682790 -187.019382
v -18.802006 -61.921177 -183.604091
v -18.259761 -62.159563 -180.188801
v -16.686104 -62.374615 -177.107823
v -14.235077 -62.545281 -174.662745
v -11.146603 -62.654856 -173.092908
v -7.723003 -62.692612 -172.551980
v -4.299403 -62.654855 -173.092909
v -1.210929 -62.545281 -174.662746
v 1.240097 -62.374615 -177.107823
v 2.813754 -62.159563 -180.188801
v 3.355998 -61.921177 -183.604091
v 2.813760 -42.729014 -185.696412
v 1.240103 -42.513962 -188.777392
v -1.210925 -42.343295 -191.222471
v -4.299401 -42.233721 -192.792307
v -7.723002 -42.195964 -193.333236
v -11.146604 -42.233721 -192.792307
v -14.235078 -42.343296 -191.222469
v -16.686105 -42.513962 -188.777390
v -18.259761 -42.729014 -185.696411
v -18.802006 -42.967400 -182.281121
v -18.259761 -43.205787 -178.865830
v -16.686104 -43.420839 -175.784852
v -14.235077 -43.591505 -173.339774
v -11.146603 -43.701079 -171.769938
v -7.723003 -43.738836 -171.229009
v -4.299403 -43.701079 -171.769938
v -1.210929 -43.591505 -173.339775
v 1.240097 -43.420839 -175.784853
v 2.813754 -43.205787 -178.865831
v 3.355998 -42.967400 -182.281121
v -7.723002 -61.921177 -183.604091
v -7.723002 -42.967400 -182.281121
vt 0.648603 0.107966
vt 0.626409 0.064408
vt 0.591842 0.029841
vt 0.548284 0.007647
vt 0.500000 -0.000000
vt 0.451716 0.007647
vt 0.408159 0.029841
vt 0.373591 0.064409
vt 0.351397 0.107966
vt 0.343750 0.156250
vt 0.351397 0.204534
vt 0.373591 0.248091
vt 0.408159 0.282659
vt 0.451716 0.304853
vt 0.500000 0.312500
vt 0.548284 0.304853
vt 0.591841 0.282659
vt 0.626409 0.248091
vt 0.648603 0.204534
vt 0.656250 0.156250
vt 0.375000 0.312500
vt 0.387500 0.312500
vt 0.400000 0.312500
vt 0.412500 0.312500
vt 0.425000 0.312500
vt 0.437500 0.312500
vt 0.450000 0.312500
vt 0.462500 0.312500
vt 0.475000 0.312500
vt 0.487500 0.312500
vt 0.500000 0.312500
vt 0.512500 0.312500
vt 0.525000 0.312500
vt 0.537500 0.312500
vt 0.550000 0.312500
vt 0.562500 0.312500
vt 0.575000 0.312500
vt 0.587500 0.312500
vt 0.600000 0.312500
vt 0.612500 0.312500
vt 0.625000 0.312500
vt 0.375000 0.688440
vt 0.387500 0.688440
vt 0.400000 0.688440
vt 0.412500 0.688440
vt 0.425000 0.688440
vt 0.437500 0.688440
vt 0.450000 0.688440
vt 0.462500 0.688440
vt 0.475000 0.688440
vt 0.487500 0.688440
vt 0.500000 0.688440
vt 0.512500 0.688440
vt 0.525000 0.688440
vt 0.537500 0.688440
vt 0.550000 0.688440
vt 0.562500 0.688440
vt 0.575000 0.688440
vt 0.587500 0.688440
vt 0.600000 0.688440
vt 0.612500 0.688440
vt 0.625000 0.688440
vt 0.648603 0.795466
vt 0.626409 0.751908
vt 0.591842 0.717341
vt 0.548284 0.695147
vt 0.500000 0.687500
vt 0.451716 0.695147
vt 0.408159 0.717341
vt 0.373591 0.751909
vt 0.351397 0.795466
vt 0.343750 0.843750
vt 0.351397 0.892034
vt 0.373591 0.935591
vt 0.408159 0.970159
vt 0.451716 0.992353
vt 0.500000 1.000000
vt 0.548284 0.992353
vt 0.591841 0.970159
vt 0.626409 0.935591
vt 0.648603 0.892034
vt 0.656250 0.843750
vt 0.500000 0.150000
vt 0.500000 0.837500
vn 0.951057 0.021517 -0.308266
vn 0.809017 0.040928 -0.586359
vn 0.951057 0.021517 -0.308266
vn 0.809017 0.040928 -0.586359
vn 0.587785 0.056332 -0.807053
vn 0.587785 0.056332 -0.807054
vn 0.309017 0.066222 -0.948748
vn 0.309017 0.066222 -0.948748
vn -0.000000 0.069630 -0.997573
vn 0.000000 0.069630 -0.997573
vn -0.309017 0.066222 -0.948748
vn -0.309017 0.066222 -0.948748
vn -0.587785 0.056332 -0.807053
vn -0.587785 0.056332 -0.807053
vn -0.809017 0.040928 -0.586358
vn -0.809017 0.040928 -0.586358
vn -0.951056 0.021517 -0.308267
vn -0.951056 0.021517 -0.308267
vn -1.000000 0.000000 -0.000000
vn -1.000000 -0.000000 0.000000
vn -0.951056 -0.021517 0.308267
vn -0.951056 -0.021517 0.308267
vn -0.809017 -0.040928 0.586359
vn -0.809017 -0.040928 0.586359
vn -0.587785 -0.056332 0.807053
vn -0.587785 -0.056332 0.807053
vn -0.309017 -0.066222 0.948748
vn -0.309017 -0.066222 0.948748
vn 0.000000 -0.069630 0.997573
vn 0.000000 -0.069630 0.997573
vn 0.309017 -0.066222 0.948748
vn 0.309017 -0.066222 0.948748
vn 0.587785 -0.056332 0.807053
vn 0.587785 -0.056332 0.807053
vn 0.809017 -0.040928 0.586359
vn 0.809017 -0.040928 0.586358
vn 0.951056 -0.021517 0.308267
vn 0.951056 -0.021517 0.308267
vn 1.000000 -0.000000 0.000001
vn 1.000000 -0.000000 0.000001
vn 0.000000 -0.997573 -0.069630
vn 0.000000 -0.997573 -0.069630
vn 0.000000 -0.997573 -0.069630
vn 0.000000 -0.997573 -0.069630
vn 0.000000 -0.997573 -0.069630
vn 0.000000 -0.997573 -0.069630
vn 0.000000 -0.997573 -0.069630
vn 0.000000 -0.997573 -0.069630
vn 0.000000 -0.997573 -0.069630
vn 0.000000 -0.997573 -0.069630
vn 0.000000 -0.997573 -0.069630
vn 0.000000 -0.997573 -0.069630
vn 0.000000 -0.997573 -0.069630
vn 0.000000 -0.997573 -0.069630
vn 0.000000 -0.997573 -0.069630
vn 0.000000 -0.997573 -0.069630
vn 0.000000 -0.997573 -0.069630
vn 0.000000 -0.997573 -0.069630
vn 0.000000 -0.997573 -0.069630
vn 0.000000 -0.997573 -0.069630
vn 0.000000 -0.997573 -0.069630
vn 0.000000 0.997573 0.069630
vn 0.000000 0.997573 0.069630
vn 0.000000 0.997573 0.069630
vn 0.000000 0.997573 0.069630
vn 0.000000 0.997573 0.069630
vn 0.000000 0.997573 0.069630
vn 0.000000 0.997573 0.069630
vn 0.000000 0.997573 0.069630
vn 0.000000 0.997573 0.069630
vn 0.000000 0.997573 0.069630
vn 0.000000 0.997573 0.069630
vn 0.000000 0.997573 0.069630
vn 0.000000 0.997573 0.069630
vn 0.000000 0.997573 0.069630
vn 0.000000 0.997573 0.069630
vn 0.000000 0.997573 0.069630
vn 0.000000 0.997573 0.069630
vn 0.000000 0.997573 0.069630
vn 0.000000 0.997573 0.069630
vn 0.000000 0.997573 0.069630
vn 0.000000 0.997573 0.069630
s 1
g Bumper_3
usemtl phong10SG
f 1/21/1 2/22/2 21/42/3
f 21/42/3 2/22/2 22/43/4
f 2/22/2 3/23/5 22/43/4
f 22/43/4 3/23/5 23/44/6
f 3/23/5 4/24/7 23/44/6
f 23/44/6 4/24/7 24/45/8
f 4/24/7 5/25/9 24/45/8
f 24/45/8 5/25/9 25/46/10
f 5/25/9 6/26/11 25/46/10
f 25/46/10 6/26/11 26/47/12
f 6/26/11 7/27/13 26/47/12
f 26/47/12 7/27/13 27/48/14
f 7/27/13 8/28/15 27/48/14
f 27/48/14 8/28/15 28/49/16
f 8/28/15 9/29/17 28/49/16
f 28/49/16 9/29/17 29/50/18
f 9/29/17 10/30/19 29/50/18
f 29/50/18 10/30/19 30/51/20
f 10/30/19 11/31/21 30/51/20
f 30/51/20 11/31/21 31/52/22
f 11/31/21 12/32/23 31/52/22
f 31/52/22 12/32/23 32/53/24
f 12/32/23 13/33/25 32/53/24
f 32/53/24 13/33/25 33/54/26
f 13/33/25 14/34/27 33/54/26
f 33/54/26 14/34/27 34/55/28
f 14/34/27 15/35/29 34/55/28
f 34/55/28 15/35/29 35/56/30
f 15/35/29 16/36/31 35/56/30
f 35/56/30 16/36/31 36/57/32
f 16/36/31 17/37/33 36/57/32
f 36/57/32 17/37/33 37/58/34
f 17/37/33 18/38/35 37/58/34
f 37/58/34 18/38/35 38/59/36
f 18/38/35 19/39/37 38/59/36
f 38/59/36 19/39/37 39/60/38
f 19/39/37 20/40/39 39/60/38
f 39/60/38 20/40/39 40/61/40
f 20/40/39 1/41/1 40/61/40
f 40/61/40 1/41/1 21/62/3
s 2
f 2/2/41 1/1/42 41/83/43
f 3/3/44 2/2/41 41/83/43
f 4/4/45 3/3/44 41/83/43
f 5/5/46 4/4/45 41/83/43
f 6/6/47 5/5/46 41/83/43
f 7/7/48 6/6/47 41/83/43
f 8/8/49 7/7/48 41/83/43
f 9/9/50 8/8/49 41/83/43
f 10/10/51 9/9/50 41/83/43
f 11/11/52 10/10/51 41/83/43
f 12/12/53 11/11/52 41/83/43
f 13/13/54 12/12/53 41/83/43
f 14/14/55 13/13/54 41/83/43
f 15/15/56 14/14/55 41/83/43
f 16/16/57 15/15/56 41/83/43
f 17/17/58 16/16/57 41/83/43
f 18/18/59 17/17/58 41/83/43
f 19/19/60 18/18/59 41/83/43
f 20/20/61 19/19/60 41/83/43
f 1/1/42 20/20/61 41/83/43
s 3
f 21/81/62 22/80/63 42/84/64
f 22/80/63 23/79/65 42/84/64
f 23/79/65 24/78/66 42/84/64
f 24/78/66 25/77/67 42/84/64
f 25/77/67 26/76/68 42/84/64
f 26/76/68 27/75/69 42/84/64
f 27/75/69 28/74/70 42/84/64
f 28/74/70 29/73/71 42/84/64
f 29/73/71 30/72/72 42/84/64
f 30/72/72 31/71/73 42/84/64
f 31/71/73 32/70/74 42/84/64
f 32/70/74 33/69/75 42/84/64
f 33/69/75 34/68/76 42/84/64
f 34/68/76 35/67/77 42/84/64
f 35/67/77 36/66/78 42/84/64
f 36/66/78 37/65/79 42/84/64
f 37/65/79 38/64/80 42/84/64
f 38/64/80 39/63/81 42/84/64
f 39/63/81 40/82/82 42/84/64
f 40/82/82 21/81/62 42/84/64
