# This file uses centimeters as units for non-parametric coordinates.

mtllib Keyhole.mtl
g default
v 44.040540 -116.121342 253.209763
v 42.924268 -116.690136 253.209763
v 42.038404 -117.576062 253.209763
v 41.469495 -118.692410 253.209763
v 41.273572 -119.929867 253.209763
v 41.469495 -121.167340 253.209763
v 42.038404 -122.283688 253.209763
v 42.924268 -123.169629 253.209763
v 44.040540 -123.738430 253.209763
v 45.278150 -123.934414 253.209763
v 46.515576 -123.738430 253.209763
v 47.632032 -123.169629 253.209763
v 48.517896 -122.283688 253.209763
v 49.086621 -121.167340 253.209763
v 49.282727 -119.929867 253.209763
v 49.086621 -118.692410 253.209763
v 48.517896 -117.576062 253.209763
v 47.632032 -116.690136 253.209763
v 46.515576 -116.121342 253.209763
v 45.278150 -115.925335 253.209763
v 44.040540 -116.121342 254.347031
v 42.924268 -116.690136 254.347031
v 42.038404 -117.576062 254.347031
v 41.469495 -118.692410 254.347031
v 41.273572 -119.929867 254.347031
v 41.469495 -121.167340 254.347031
v 42.038404 -122.283688 254.347031
v 42.924268 -123.169629 254.347031
v 44.040540 -123.738430 254.347031
v 45.278150 -123.934414 254.347031
v 46.515576 -123.738430 254.347031
v 47.632032 -123.169629 254.347031
v 48.517896 -122.283688 254.347031
v 49.086621 -121.167340 254.347031
v 49.282727 -119.929867 254.347031
v 49.086621 -118.692410 254.347031
v 48.517896 -117.576062 254.347031
v 47.632032 -116.690136 254.347031
v 46.515576 -116.121342 254.347031
v 45.278150 -115.925335 254.347031
v 45.278150 -119.929867 253.209763
v 45.278150 -119.929867 253.331192
v 43.936231 -115.800007 252.881714
v 42.725721 -116.416798 252.881714
v 41.765088 -117.377476 252.881714
v 41.148206 -118.588002 252.881714
v 40.935742 -119.929882 252.881714
v 41.148206 -121.271756 252.881714
v 41.765088 -122.482281 252.881714
v 42.725721 -123.442975 252.881714
v 43.936231 -124.059765 252.881714
v 45.278150 -124.272290 252.881714
v 46.620008 -124.059765 252.881714
v 47.830579 -123.442975 252.881714
v 48.791211 -122.482281 252.881714
v 49.408033 -121.271756 252.881714
v 49.620557 -119.929882 252.881714
v 49.408033 -118.588002 252.881714
v 48.791211 -117.377476 252.881714
v 47.830579 -116.416798 252.881714
v 46.620008 -115.800007 252.881714
v 45.278150 -115.587475 252.881714
v 43.936231 -115.799992 254.114929
v 42.725721 -116.416790 254.114929
v 41.765088 -117.377476 254.114929
v 41.148206 -118.588002 254.114929
v 40.935742 -119.929882 254.114929
v 41.148206 -121.271771 254.114929
v 41.765088 -122.482296 254.114929
v 42.725721 -123.442975 254.114929
v 43.936231 -124.059765 254.114929
v 45.278150 -124.272305 254.114929
v 46.620008 -124.059765 254.114929
v 47.830579 -123.442975 254.114929
v 48.791211 -122.482296 254.114929
v 49.408033 -121.271771 254.114929
v 49.620557 -119.929882 254.114929
v 49.408033 -118.588002 254.114929
v 48.791211 -117.377476 254.114929
v 47.830579 -116.416790 254.114929
v 46.620008 -115.799992 254.114929
v 45.278150 -115.587460 254.114929
v 45.278150 -119.929882 252.881714
v 45.278150 -119.929882 253.013382
vt 0.634834 0.968129
vt 0.756449 0.898215
vt 0.756451 0.898215
vt 0.634837 0.968129
vt 0.852961 0.789321
vt 0.852963 0.789321
vt 0.914942 0.652104
vt 0.914944 0.652104
vt 0.936287 0.500001
vt 0.936289 0.500001
vt 0.914942 0.347896
vt 0.914944 0.347896
vt 0.852961 0.210680
vt 0.852963 0.210680
vt 0.756449 0.101784
vt 0.756451 0.101784
vt 0.634835 0.031868
vt 0.634837 0.031868
vt 0.500001 0.007778
vt 0.500003 0.007778
vt 0.365187 0.031868
vt 0.365190 0.031868
vt 0.243553 0.101784
vt 0.243556 0.101784
vt 0.147041 0.210680
vt 0.147044 0.210680
vt 0.085080 0.347896
vt 0.085083 0.347896
vt 0.063715 0.500001
vt 0.063717 0.500001
vt 0.085080 0.652104
vt 0.085083 0.652104
vt 0.147041 0.789321
vt 0.147044 0.789321
vt 0.243553 0.898215
vt 0.243556 0.898215
vt 0.365187 0.968129
vt 0.365189 0.968129
vt 0.500000 0.992222
vt 0.500003 0.992222
vt 0.500001 0.500001
vt 0.500001 0.500001
vt 0.273003 0.945503
vt 0.421781 0.993843
vt 0.421782 0.993845
vt 0.273004 0.945504
vt 0.578214 0.993840
vt 0.578215 0.993841
vt 0.726994 0.945503
vt 0.726995 0.945504
vt 0.853550 0.853551
vt 0.853552 0.853552
vt 0.945502 0.726995
vt 0.945503 0.726996
vt 0.993840 0.578214
vt 0.993841 0.578215
vt 0.993842 0.421782
vt 0.993843 0.421783
vt 0.945502 0.273004
vt 0.945503 0.273005
vt 0.853550 0.146444
vt 0.853551 0.146445
vt 0.726994 0.054496
vt 0.726995 0.054497
vt 0.578213 0.006152
vt 0.578214 0.006153
vt 0.421780 0.006155
vt 0.421781 0.006156
vt 0.273002 0.054496
vt 0.273003 0.054497
vt 0.146445 0.146448
vt 0.146446 0.146449
vt 0.054493 0.273004
vt 0.054494 0.273005
vt 0.006154 0.421782
vt 0.006155 0.421783
vt 0.006152 0.578214
vt 0.006153 0.578215
vt 0.054496 0.726995
vt 0.054497 0.726996
vt 0.146444 0.853551
vt 0.146445 0.853552
vt 0.499997 0.499998
vt 0.499997 0.499998
vn -0.309002 0.951061 0.000000
vn -0.587807 0.809001 0.000000
vn -0.309006 0.951060 0.000000
vn -0.587810 0.808999 0.000000
vn -0.809011 0.587794 0.000000
vn -0.809011 0.587794 0.000000
vn -0.951052 0.309031 0.000000
vn -0.951053 0.309027 0.000000
vn -1.000000 -0.000000 0.000000
vn -1.000000 0.000000 0.000000
vn -0.951054 -0.309024 0.000000
vn -0.951054 -0.309025 0.000000
vn -0.809011 -0.587794 0.000000
vn -0.809013 -0.587791 0.000000
vn -0.587814 -0.808996 0.000000
vn -0.587818 -0.808994 0.000000
vn -0.309004 -0.951061 0.000000
vn -0.309004 -0.951061 0.000000
vn 0.000000 -1.000000 0.000000
vn -0.000000 -1.000000 0.000000
vn 0.309004 -0.951061 0.000000
vn 0.309004 -0.951061 0.000000
vn 0.587775 -0.809025 0.000000
vn 0.587778 -0.809022 0.000000
vn 0.809048 -0.587743 0.000000
vn 0.809051 -0.587739 0.000000
vn 0.951053 -0.309027 0.000000
vn 0.951054 -0.309025 0.000000
vn 1.000000 -0.000001 0.000000
vn 1.000000 0.000001 0.000000
vn 0.951053 0.309028 0.000000
vn 0.951053 0.309027 0.000000
vn 0.809047 0.587744 0.000000
vn 0.809046 0.587746 0.000000
vn 0.587768 0.809030 0.000000
vn 0.587771 0.809028 0.000000
vn 0.309009 0.951059 0.000000
vn 0.309012 0.951058 0.000000
vn -0.000001 1.000000 0.000000
vn -0.000001 1.000000 0.000000
vn -0.000012 0.000000 -1.000000
vn -0.000012 0.000000 -1.000000
vn -0.000000 0.000000 -1.000000
vn -0.000006 0.000000 -1.000000
vn -0.000006 0.000000 -1.000000
vn 0.000000 0.000000 -1.000000
vn 0.000000 0.000000 -1.000000
vn 0.000000 0.000000 -1.000000
vn 0.000012 0.000000 -1.000000
vn 0.000000 0.000000 -1.000000
vn -0.000000 0.000000 -1.000000
vn -0.000000 0.000000 -1.000000
vn -0.000012 0.000000 -1.000000
vn 0.000006 0.000000 -1.000000
vn 0.000006 0.000000 -1.000000
vn 0.000000 0.000000 -1.000000
vn 0.000012 0.000000 -1.000000
vn 0.000012 0.000000 -1.000000
vn 0.000000 0.000000 -1.000000
vn 0.000000 0.000000 -1.000000
vn 0.000000 0.000000 -1.000000
vn 0.075987 -0.233849 0.969299
vn 0.144533 -0.198919 0.969299
vn -0.000001 -0.000000 1.000000
vn 0.198918 -0.144529 0.969301
vn 0.233845 -0.075982 0.969300
vn 0.245887 0.000000 0.969299
vn 0.233852 0.075982 0.969299
vn 0.198932 0.144526 0.969298
vn 0.144531 0.198917 0.969300
vn 0.075975 0.233848 0.969300
vn 0.000000 0.245884 0.969299
vn -0.075964 0.233852 0.969300
vn -0.144512 0.198923 0.969302
vn -0.198944 0.144515 0.969297
vn -0.233865 0.075986 0.969295
vn -0.245888 -0.000000 0.969298
vn -0.233856 -0.075986 0.969298
vn -0.198925 -0.144517 0.969301
vn -0.144525 -0.198925 0.969299
vn -0.075988 -0.233853 0.969298
vn 0.000000 -0.245885 0.969299
vn -0.309013 0.951058 -0.000019
vn -0.587798 0.809008 -0.000004
vn -0.309015 0.951057 -0.000023
vn -0.587799 0.809007 0.000000
vn -0.809006 0.587801 0.000000
vn -0.809009 0.587797 0.000000
vn -0.951053 0.309029 0.000000
vn -0.951055 0.309023 0.000000
vn -1.000000 0.000001 0.000000
vn -1.000000 -0.000001 -0.000001
vn -0.951054 -0.309026 -0.000001
vn -0.951054 -0.309026 -0.000001
vn -0.809011 -0.587793 0.000000
vn -0.809012 -0.587792 0.000000
vn -0.587793 -0.809011 0.000000
vn -0.587795 -0.809010 0.000000
vn -0.309009 -0.951059 0.000000
vn -0.309017 -0.951057 0.000000
vn -0.000004 -1.000000 0.000000
vn -0.000004 -1.000000 0.000000
vn 0.309008 -0.951059 0.000000
vn 0.309015 -0.951057 0.000000
vn 0.587784 -0.809018 0.000000
vn 0.587787 -0.809015 0.000000
vn 0.809019 -0.587783 0.000000
vn 0.809019 -0.587782 0.000000
vn 0.951056 -0.309019 -0.000002
vn 0.951055 -0.309021 -0.000001
vn 1.000000 0.000000 -0.000001
vn 1.000000 -0.000000 0.000000
vn 0.951053 0.309029 0.000000
vn 0.951055 0.309022 0.000000
vn 0.809020 0.587781 0.000000
vn 0.809023 0.587776 0.000000
vn 0.587780 0.809021 -0.000009
vn 0.587786 0.809017 -0.000005
vn 0.309015 0.951057 -0.000004
vn 0.309024 0.951054 -0.000004
vn 0.000001 1.000000 -0.000005
vn 0.000001 1.000000 -0.000018
vn -0.000010 0.000000 -1.000000
vn -0.000010 0.000000 -1.000000
vn 0.000001 0.000000 -1.000000
vn 0.000000 0.000000 -1.000000
vn 0.000000 0.000000 -1.000000
vn 0.000000 0.000000 -1.000000
vn 0.000000 0.000000 -1.000000
vn 0.000000 0.000000 -1.000000
vn 0.000000 0.000000 -1.000000
vn 0.000000 0.000000 -1.000000
vn 0.000000 0.000000 -1.000000
vn 0.000000 0.000000 -1.000000
vn 0.000000 0.000000 -1.000000
vn 0.000000 0.000000 -1.000000
vn 0.000000 0.000000 -1.000000
vn 0.000000 0.000000 -1.000000
vn 0.000000 0.000000 -1.000000
vn 0.000000 0.000000 -1.000000
vn 0.000021 0.000000 -1.000000
vn 0.000021 0.000000 -1.000000
vn 0.000000 0.000000 -1.000000
vn 0.075984 -0.233848 0.969299
vn 0.144529 -0.198921 0.969300
vn -0.000001 -0.000000 1.000000
vn 0.198926 -0.144530 0.969298
vn 0.233850 -0.075983 0.969299
vn 0.245886 0.000000 0.969299
vn 0.233847 0.075982 0.969300
vn 0.198933 0.144531 0.969297
vn 0.144540 0.198922 0.969298
vn 0.075984 0.233848 0.969299
vn 0.000000 0.245884 0.969299
vn -0.075984 0.233849 0.969299
vn -0.144538 0.198923 0.969298
vn -0.198938 0.144526 0.969297
vn -0.233855 0.075983 0.969298
vn -0.245888 0.000000 0.969298
vn -0.233852 -0.075984 0.969299
vn -0.198928 -0.144526 0.969299
vn -0.144527 -0.198923 0.969300
vn -0.075984 -0.233849 0.969299
vn 0.000000 -0.245882 0.969300
s 1
g Keyhole
usemtl phong16SG
f 1/1/1 2/2/2 21/4/3
f 21/4/3 2/2/2 22/3/4
f 2/2/2 3/5/5 22/3/4
f 22/3/4 3/5/5 23/6/6
f 3/5/5 4/7/7 23/6/6
f 23/6/6 4/7/7 24/8/8
f 4/7/7 5/9/9 24/8/8
f 24/8/8 5/9/9 25/10/10
f 5/9/9 6/11/11 25/10/10
f 25/10/10 6/11/11 26/12/12
f 6/11/11 7/13/13 26/12/12
f 26/12/12 7/13/13 27/14/14
f 7/13/13 8/15/15 27/14/14
f 27/14/14 8/15/15 28/16/16
f 8/15/15 9/17/17 28/16/16
f 28/16/16 9/17/17 29/18/18
f 9/17/17 10/19/19 29/18/18
f 29/18/18 10/19/19 30/20/20
f 10/19/19 11/21/21 30/20/20
f 30/20/20 11/21/21 31/22/22
f 11/21/21 12/23/23 31/22/22
f 31/22/22 12/23/23 32/24/24
f 12/23/23 13/25/25 32/24/24
f 32/24/24 13/25/25 33/26/26
f 13/25/25 14/27/27 33/26/26
f 33/26/26 14/27/27 34/28/28
f 14/27/27 15/29/29 34/28/28
f 34/28/28 15/29/29 35/30/30
f 15/29/29 16/31/31 35/30/30
f 35/30/30 16/31/31 36/32/32
f 16/31/31 17/33/33 36/32/32
f 36/32/32 17/33/33 37/34/34
f 17/33/33 18/35/35 37/34/34
f 37/34/34 18/35/35 38/36/36
f 18/35/35 19/37/37 38/36/36
f 38/36/36 19/37/37 39/38/38
f 19/37/37 20/39/39 39/38/38
f 39/38/38 20/39/39 40/40/40
f 20/39/39 1/1/1 40/40/40
f 40/40/40 1/1/1 21/4/3
s 2
f 2/2/41 1/1/42 41/41/43
f 3/5/44 2/2/41 41/41/43
f 4/7/45 3/5/44 41/41/43
f 5/9/46 4/7/45 41/41/43
f 6/11/47 5/9/46 41/41/43
f 7/13/48 6/11/47 41/41/43
f 8/15/49 7/13/48 41/41/43
f 9/17/50 8/15/49 41/41/43
f 10/19/51 9/17/50 41/41/43
f 11/21/52 10/19/51 41/41/43
f 12/23/53 11/21/52 41/41/43
f 13/25/54 12/23/53 41/41/43
f 14/27/55 13/25/54 41/41/43
f 15/29/56 14/27/55 41/41/43
f 16/31/57 15/29/56 41/41/43
f 17/33/58 16/31/57 41/41/43
f 18/35/59 17/33/58 41/41/43
f 19/37/60 18/35/59 41/41/43
f 20/39/61 19/37/60 41/41/43
f 1/1/42 20/39/61 41/41/43
s 3
f 21/4/62 22/3/63 42/42/64
f 22/3/63 23/6/65 42/42/64
f 23/6/65 24/8/66 42/42/64
f 24/8/66 25/10/67 42/42/64
f 25/10/67 26/12/68 42/42/64
f 26/12/68 27/14/69 42/42/64
f 27/14/69 28/16/70 42/42/64
f 28/16/70 29/18/71 42/42/64
f 29/18/71 30/20/72 42/42/64
f 30/20/72 31/22/73 42/42/64
f 31/22/73 32/24/74 42/42/64
f 32/24/74 33/26/75 42/42/64
f 33/26/75 34/28/76 42/42/64
f 34/28/76 35/30/77 42/42/64
f 35/30/77 36/32/78 42/42/64
f 36/32/78 37/34/79 42/42/64
f 37/34/79 38/36/80 42/42/64
f 38/36/80 39/38/81 42/42/64
f 39/38/81 40/40/82 42/42/64
f 40/40/82 21/4/62 42/42/64
s 4
f 43/43/83 44/44/84 63/46/85
f 63/46/85 44/44/84 64/45/86
f 44/44/84 45/47/87 64/45/86
f 64/45/86 45/47/87 65/48/88
f 45/47/87 46/49/89 65/48/88
f 65/48/88 46/49/89 66/50/90
f 46/49/89 47/51/91 66/50/90
f 66/50/90 47/51/91 67/52/92
f 47/51/91 48/53/93 67/52/92
f 67/52/92 48/53/93 68/54/94
f 48/53/93 49/55/95 68/54/94
f 68/54/94 49/55/95 69/56/96
f 49/55/95 50/57/97 69/56/96
f 69/56/96 50/57/97 70/58/98
f 50/57/97 51/59/99 70/58/98
f 70/58/98 51/59/99 71/60/100
f 51/59/99 52/61/101 71/60/100
f 71/60/100 52/61/101 72/62/102
f 52/61/101 53/63/103 72/62/102
f 72/62/102 53/63/103 73/64/104
f 53/63/103 54/65/105 73/64/104
f 73/64/104 54/65/105 74/66/106
f 54/65/105 55/67/107 74/66/106
f 74/66/106 55/67/107 75/68/108
f 55/67/107 56/69/109 75/68/108
f 75/68/108 56/69/109 76/70/110
f 56/69/109 57/71/111 76/70/110
f 76/70/110 57/71/111 77/72/112
f 57/71/111 58/73/113 77/72/112
f 77/72/112 58/73/113 78/74/114
f 58/73/113 59/75/115 78/74/114
f 78/74/114 59/75/115 79/76/116
f 59/75/115 60/77/117 79/76/116
f 79/76/116 60/77/117 80/78/118
f 60/77/117 61/79/119 80/78/118
f 80/78/118 61/79/119 81/80/120
f 61/79/119 62/81/121 81/80/120
f 81/80/120 62/81/121 82/82/122
f 62/81/121 43/43/83 82/82/122
f 82/82/122 43/43/83 63/46/85
s 5
f 44/44/123 43/43/124 83/83/125
f 45/47/126 44/44/123 83/83/125
f 46/49/127 45/47/126 83/83/125
f 47/51/128 46/49/127 83/83/125
f 48/53/129 47/51/128 83/83/125
f 49/55/130 48/53/129 83/83/125
f 50/57/131 49/55/130 83/83/125
f 51/59/132 50/57/131 83/83/125
f 52/61/133 51/59/132 83/83/125
f 53/63/134 52/61/133 83/83/125
f 54/65/135 53/63/134 83/83/125
f 55/67/136 54/65/135 83/83/125
f 56/69/137 55/67/136 83/83/125
f 57/71/138 56/69/137 83/83/125
f 58/73/139 57/71/138 83/83/125
f 59/75/140 58/73/139 83/83/125
f 60/77/141 59/75/140 83/83/125
f 61/79/142 60/77/141 83/83/125
f 62/81/143 61/79/142 83/83/125
f 43/43/124 62/81/143 83/83/125
s 6
f 63/46/144 64/45/145 84/84/146
f 64/45/145 65/48/147 84/84/146
f 65/48/147 66/50/148 84/84/146
f 66/50/148 67/52/149 84/84/146
f 67/52/149 68/54/150 84/84/146
f 68/54/150 69/56/151 84/84/146
f 69/56/151 70/58/152 84/84/146
f 70/58/152 71/60/153 84/84/146
f 71/60/153 72/62/154 84/84/146
f 72/62/154 73/64/155 84/84/146
f 73/64/155 74/66/156 84/84/146
f 74/66/156 75/68/157 84/84/146
f 75/68/157 76/70/158 84/84/146
f 76/70/158 77/72/159 84/84/146
f 77/72/159 78/74/160 84/84/146
f 78/74/160 79/76/161 84/84/146
f 79/76/161 80/78/162 84/84/146
f 80/78/162 81/80/163 84/84/146
f 81/80/163 82/82/164 84/84/146
f 82/82/164 63/46/144 84/84/146
