# This file uses centimeters as units for non-parametric coordinates.

mtllib PinballBody.mtl
g default
v -94.849060 -84.859009 240.164597
v 94.188965 -84.859009 240.164597
v 94.188965 -189.216141 240.164597
v -94.849060 -189.216141 240.164597
v -107.820587 -217.489410 250.000000
v 107.160492 -217.489410 250.000000
v 107.160492 -86.523499 250.000000
v -107.820587 -86.523499 250.000000
v 94.188965 -3.570506 -240.164597
v 94.188965 -189.216141 -240.164597
v 107.160492 -217.489410 -250.000000
v 107.160492 -1.906012 -250.000000
v -94.849060 -189.216141 -240.164597
v -94.849060 -3.570506 -240.164597
v -107.820587 -217.489410 -250.000000
v -107.820587 -1.906012 -250.000000
vt 0.000000 0.562131
vt 0.000000 0.562131
vt 0.000000 -0.000000
vt -1.929177 2.946409
vt -2.542961 1.834569
vt -1.929177 1.834569
vt 0.000000 0.195401
vt 1.000000 0.195401
vt 0.000000 0.804599
vt 1.000000 0.804599
vt 1.000000 1.000000
vt 1.000000 -0.000000
vt -0.374359 0.608649
vt 1.374359 -0.374359
vt -0.374359 -0.374359
vt 0.000000 -0.003786
vt 1.000000 -0.003786
vt 0.000000 0.608309
vt 1.000000 1.003786
vt 1.301742 3.370845
vt 1.301742 0.545752
vt 2.413584 3.370845
vt 2.413584 0.545752
vt 1.000000 1.000000
vt 1.000000 -0.000000
vt 1.374359 -0.374359
vt -0.374359 0.608649
vt -0.374359 -0.374359
vt 0.285019 0.000000
vt 0.714981 0.000000
vt 0.285019 1.000000
vt 0.714981 1.000000
vt 1.000000 0.003052
vt 1.000000 0.606839
vt 0.000000 0.003052
vt 0.000000 0.996948
vt 1.000000 1.997160
vt -0.000000 1.997160
vt 1.000000 -0.997160
vt -0.000000 -0.997160
vt 1.000000 0.476800
vt 0.939662 0.523200
vt 0.000000 0.476800
vt 0.060338 0.523200
vt 1.388073 0.521363
vt 1.464367 0.463516
vt 2.652501 0.521363
vt 2.576208 0.463516
vt 0.998603 1.000000
vt 0.001397 1.000000
vt 0.998603 0.000000
vt 0.001397 0.000000
vt 0.288033 0.000000
vt 0.313612 0.019671
vt 0.288033 1.000000
vt 0.313612 0.980329
vt 0.711967 0.000000
vt 0.711967 1.000000
vt 0.686388 0.019671
vt 0.686388 0.980329
vn 0.000000 0.000000 -1.000000
vn 0.000000 0.000000 -1.000000
vn 0.000000 0.000000 -1.000000
vn 0.000000 0.000000 -1.000000
vn 0.000000 0.000000 1.000000
vn 0.000000 0.000000 1.000000
vn 0.000000 0.000000 1.000000
vn 0.000000 0.000000 1.000000
vn -1.000000 0.000000 0.000000
vn -1.000000 0.000000 0.000000
vn -1.000000 0.000000 0.000000
vn -1.000000 0.000000 0.000000
vn 1.000000 0.000000 0.000000
vn 1.000000 0.000000 0.000000
vn 1.000000 0.000000 0.000000
vn 1.000000 0.000000 0.000000
vn 0.000000 1.000000 0.000000
vn 0.000000 1.000000 0.000000
vn 0.000000 1.000000 0.000000
vn 0.000000 1.000000 0.000000
vn 1.000000 0.000000 0.000000
vn 1.000000 0.000000 0.000000
vn 1.000000 0.000000 0.000000
vn 1.000000 0.000000 0.000000
vn 0.000000 -1.000000 0.000000
vn 0.000000 -1.000000 0.000000
vn 0.000000 -1.000000 0.000000
vn 0.000000 -1.000000 0.000000
vn -1.000000 0.000000 0.000000
vn -1.000000 0.000000 0.000000
vn -1.000000 0.000000 0.000000
vn -1.000000 0.000000 0.000000
vn 0.000000 0.000000 1.000000
vn 0.000000 0.000000 1.000000
vn 0.000000 0.000000 1.000000
vn 0.000000 0.000000 1.000000
vn 0.000000 0.000000 -1.000000
vn 0.000000 0.000000 -1.000000
vn 0.000000 0.000000 -1.000000
vn 0.000000 0.000000 -1.000000
vn -0.000000 0.985980 0.166862
vn -0.000000 0.985980 0.166862
vn 0.000000 0.985980 0.166862
vn 0.000000 0.985980 0.166862
vn 0.000000 0.985980 0.166862
vn 0.000000 0.985980 0.166862
vn -0.000000 0.985980 0.166862
vn -0.000000 0.985980 0.166862
s 1
g PinballBody
usemtl phong12SG
f 1/1/1 2/2/2 4/3/3
f 4/4/3 2/5/2 3/6/4
s 2
f 5/7/5 6/8/6 8/9/7
f 8/9/7 6/8/6 7/10/8
s 3
f 9/11/9 10/12/10 2/2/11
f 2/13/11 10/14/10 3/15/12
s 4
f 6/16/13 11/17/14 7/18/15
f 7/18/15 11/17/14 12/19/16
s 5
f 13/20/17 4/21/18 10/22/19
f 10/22/19 4/21/18 3/23/20
s 6
f 14/24/21 1/1/22 13/25/23
f 13/26/23 1/27/22 4/28/24
s 7
f 15/29/25 11/30/26 5/31/27
f 5/31/27 11/30/26 6/32/28
s 8
f 5/33/29 8/34/30 15/35/31
f 15/35/31 8/34/30 16/36/32
s 9
f 9/37/33 14/38/34 10/39/35
f 10/39/35 14/38/34 13/40/36
s 10
f 16/49/37 12/50/38 15/51/39
f 15/51/39 12/50/38 11/52/40
s 11
f 7/41/41 2/42/42 8/43/43
f 2/42/42 1/44/44 8/43/43
f 8/53/43 1/54/44 16/55/45
f 1/54/44 14/56/46 16/55/45
f 16/45/45 14/46/46 12/47/47
f 14/46/46 9/48/48 12/47/47
f 7/57/41 12/58/47 2/59/42
f 12/58/47 9/60/48 2/59/42
